# xmcd CD database file
#
# Track frame offsets:
#	150
#	12637
#	30025
#	43125
#	59212
#	70875
#	82425
#	96125
#	106100
#	120300
#	132150
#	143100
#	156550
#	172200
#	187675
#	198750
#
# Disc length: 2811 seconds
#
# Revision: 0
# Processed by: cddbd v1.5.1PL0 Copyright (c) Steve Scherf et al.
# Submitted via: CDex 1.51
#
DISCID=e00af910
DTITLE=verschiedene - Volkstümliche Schlagerparade CD 2
DYEAR=1900
DGENRE=
TTITLE0=Peter Alexander - Löffelpolka
TTITLE1=Edith Prock, Alfons Bauer mit Musikanten - Der alte Heideschäfer
TTITLE2=Thomas and Diana - Es ist schön zu wissen, dass es dich gibt
TTITLE3=Kastelruther Spatzen - Streit oder Frieden
TTITLE4=Margit Anderson - Sag' noch einmal
TTITLE5=Medium Terzett - Veronika
TTITLE6=Uschi Bauer - Drei weisse Tauben
TTITLE7=Die 3 Z'widern /Werd' scho werd'n, sagt d'Frau Kern
TTITLE8=Pia and Roland - Heimatmelodie
TTITLE9=Nella Martinetti - Die Sonne des Südens
TTITLE10=Sepp Viellechner - Immer wieder frohe Lieder
TTITLE11=Shake Hands - Morgenstund ist ungesund
TTITLE12=Freddy Breck - Melanie
TTITLE13=Lolita - Das Schicksalslied
TTITLE14=Gitti and Erica - Mein Schatz wohnt in den Bergen
TTITLE15=Tölzer Knabenchor - Alles Gute und viel Glück
EXTD=
EXTT0=
EXTT1=
EXTT2=
EXTT3=
EXTT4=
EXTT5=
EXTT6=
EXTT7=
EXTT8=
EXTT9=
EXTT10=
EXTT11=
EXTT12=
EXTT13=
EXTT14=
EXTT15=
PLAYORDER=
